%TF.GenerationSoftware,KiCad,Pcbnew,(5.1.8)-1*%
%TF.CreationDate,2022-12-05T23:33:59-06:00*%
%TF.ProjectId,pcb,7063622e-6b69-4636-9164-5f7063625858,rev?*%
%TF.SameCoordinates,Original*%
%TF.FileFunction,Soldermask,Bot*%
%TF.FilePolarity,Negative*%
%FSLAX46Y46*%
G04 Gerber Fmt 4.6, Leading zero omitted, Abs format (unit mm)*
G04 Created by KiCad (PCBNEW (5.1.8)-1) date 2022-12-05 23:33:59*
%MOMM*%
%LPD*%
G01*
G04 APERTURE LIST*
%ADD10O,2.500000X1.700000*%
G04 APERTURE END LIST*
%TO.C,U1*%
G36*
G01*
X141200000Y-90955000D02*
X141200000Y-90655000D01*
G75*
G02*
X141350000Y-90505000I150000J0D01*
G01*
X143000000Y-90505000D01*
G75*
G02*
X143150000Y-90655000I0J-150000D01*
G01*
X143150000Y-90955000D01*
G75*
G02*
X143000000Y-91105000I-150000J0D01*
G01*
X141350000Y-91105000D01*
G75*
G02*
X141200000Y-90955000I0J150000D01*
G01*
G37*
G36*
G01*
X141200000Y-89685000D02*
X141200000Y-89385000D01*
G75*
G02*
X141350000Y-89235000I150000J0D01*
G01*
X143000000Y-89235000D01*
G75*
G02*
X143150000Y-89385000I0J-150000D01*
G01*
X143150000Y-89685000D01*
G75*
G02*
X143000000Y-89835000I-150000J0D01*
G01*
X141350000Y-89835000D01*
G75*
G02*
X141200000Y-89685000I0J150000D01*
G01*
G37*
G36*
G01*
X141200000Y-88415000D02*
X141200000Y-88115000D01*
G75*
G02*
X141350000Y-87965000I150000J0D01*
G01*
X143000000Y-87965000D01*
G75*
G02*
X143150000Y-88115000I0J-150000D01*
G01*
X143150000Y-88415000D01*
G75*
G02*
X143000000Y-88565000I-150000J0D01*
G01*
X141350000Y-88565000D01*
G75*
G02*
X141200000Y-88415000I0J150000D01*
G01*
G37*
G36*
G01*
X141200000Y-87145000D02*
X141200000Y-86845000D01*
G75*
G02*
X141350000Y-86695000I150000J0D01*
G01*
X143000000Y-86695000D01*
G75*
G02*
X143150000Y-86845000I0J-150000D01*
G01*
X143150000Y-87145000D01*
G75*
G02*
X143000000Y-87295000I-150000J0D01*
G01*
X141350000Y-87295000D01*
G75*
G02*
X141200000Y-87145000I0J150000D01*
G01*
G37*
G36*
G01*
X136250000Y-88415000D02*
X136250000Y-88115000D01*
G75*
G02*
X136400000Y-87965000I150000J0D01*
G01*
X138050000Y-87965000D01*
G75*
G02*
X138200000Y-88115000I0J-150000D01*
G01*
X138200000Y-88415000D01*
G75*
G02*
X138050000Y-88565000I-150000J0D01*
G01*
X136400000Y-88565000D01*
G75*
G02*
X136250000Y-88415000I0J150000D01*
G01*
G37*
G36*
G01*
X136250000Y-89685000D02*
X136250000Y-89385000D01*
G75*
G02*
X136400000Y-89235000I150000J0D01*
G01*
X138050000Y-89235000D01*
G75*
G02*
X138200000Y-89385000I0J-150000D01*
G01*
X138200000Y-89685000D01*
G75*
G02*
X138050000Y-89835000I-150000J0D01*
G01*
X136400000Y-89835000D01*
G75*
G02*
X136250000Y-89685000I0J150000D01*
G01*
G37*
G36*
G01*
X136250000Y-90955000D02*
X136250000Y-90655000D01*
G75*
G02*
X136400000Y-90505000I150000J0D01*
G01*
X138050000Y-90505000D01*
G75*
G02*
X138200000Y-90655000I0J-150000D01*
G01*
X138200000Y-90955000D01*
G75*
G02*
X138050000Y-91105000I-150000J0D01*
G01*
X136400000Y-91105000D01*
G75*
G02*
X136250000Y-90955000I0J150000D01*
G01*
G37*
G36*
G01*
X136250000Y-87145000D02*
X136250000Y-86845000D01*
G75*
G02*
X136400000Y-86695000I150000J0D01*
G01*
X138050000Y-86695000D01*
G75*
G02*
X138200000Y-86845000I0J-150000D01*
G01*
X138200000Y-87145000D01*
G75*
G02*
X138050000Y-87295000I-150000J0D01*
G01*
X136400000Y-87295000D01*
G75*
G02*
X136250000Y-87145000I0J150000D01*
G01*
G37*
%TD*%
D10*
%TO.C,TP1*%
X134874000Y-88900000D03*
%TD*%
M02*
